<svg xmlns="http://www.w3.org/2000/svg" width="514" height="514"><path fill="#FDFCFA" d="m256.688-.312 2.934.006C273.942-.255 287.925.14 302 3l3.061.602C328.391 8.296 350.626 15.528 372 26l2.22 1.081C405.45 42.468 434.49 65.605 456 93q1.304 1.604 2.613 3.203c33.327 41.064 55.31 95.35 55.59 148.59l.021 2.729q.025 4.332.026 8.666l.002 2.992c-.016 14.49-.469 28.56-3.252 42.82l-.488 2.718C502.73 347.73 483.412 388.768 455 422l-2.84 3.398c-8.706 10.372-17.794 19.972-28.426 28.426a231 231 0 0 0-5.343 4.383C381.794 489.12 335.14 506.908 288 513l-2.034.265c-5.567.674-11.056.909-16.661.938l-2.734.021c-2.898.018-5.797.024-8.696.026l-3 .002c-14.51-.016-28.597-.465-42.875-3.252l-2.718-.488C185.878 506.277 163.305 498.532 142 488l-2.255-1.109C119.385 476.771 100.628 463.486 84 448a748 748 0 0 0-4.062-3.5C71.762 437.342 64.742 429.506 58 421l-2.625-3.215C28.3 384.4 10.577 344.226 3 302l-.492-2.519C-2.767 271.863-2.558 239.546 3 212l.536-2.733C4.835 202.794 6.342 196.39 8 190l.651-2.517C17.312 154.828 33.146 124.49 54 98l2.137-2.723C62.08 87.862 68.466 80.892 75 74l2.156-2.285c4.729-4.874 9.836-9.192 15.167-13.393q1.776-1.4 3.541-2.812C106.414 47.1 117.266 39.662 129 33l2.42-1.382C152.345 19.803 174.648 11.548 198 6l2.502-.6a512 512 0 0 1 7.248-1.65l2.033-.458C225.27.068 240.929-.376 256.688-.312"/><path fill="#FDFBFA" d="m256.688-.312 2.934.006C273.942-.255 287.925.14 302 3l3.061.602C328.391 8.296 350.626 15.528 372 26l2.22 1.081C405.45 42.468 434.49 65.605 456 93q1.304 1.604 2.613 3.203c33.327 41.064 55.31 95.35 55.59 148.59l.021 2.729q.025 4.332.026 8.666l.002 2.992c-.016 14.49-.469 28.56-3.252 42.82l-.488 2.718C502.73 347.73 483.412 388.768 455 422l-2.84 3.398c-8.706 10.372-17.794 19.972-28.426 28.426a231 231 0 0 0-5.343 4.383C381.794 489.12 335.14 506.908 288 513l-2.034.265c-5.567.674-11.056.909-16.661.938l-2.734.021c-2.898.018-5.797.024-8.696.026l-3 .002c-14.51-.016-28.597-.465-42.875-3.252l-2.718-.488C185.878 506.277 163.305 498.532 142 488l-2.255-1.109C119.385 476.771 100.628 463.486 84 448a748 748 0 0 0-4.062-3.5C71.762 437.342 64.742 429.506 58 421l-2.625-3.215C28.3 384.4 10.577 344.226 3 302l-.492-2.519C-2.767 271.863-2.558 239.546 3 212l.536-2.733C4.835 202.794 6.342 196.39 8 190l.651-2.517C17.312 154.828 33.146 124.49 54 98l2.137-2.723C62.08 87.862 68.466 80.892 75 74l2.156-2.285c4.729-4.874 9.836-9.192 15.167-13.393q1.776-1.4 3.541-2.812C106.414 47.1 117.266 39.662 129 33l2.42-1.382C152.345 19.803 174.648 11.548 198 6l2.502-.6a512 512 0 0 1 7.248-1.65l2.033-.458C225.27.068 240.929-.376 256.688-.312M136.468 79.77c-3.37 1.68-6.858 2.994-10.374 4.335-2.33.92-2.33.92-5.094 2.895v2l-2.086.633c-3.842 1.802-6.487 4.336-9.539 7.242l-1.734 1.605c-2.827 2.65-5.557 5.224-7.641 8.52v2l-3 1c-4.137 4.24-6.18 9.395-8.5 14.75l-1.145 2.594a816 816 0 0 0-2.249 5.148 163 163 0 0 1-2.252 4.889c-2.295 4.822-3.393 8.76-3.604 14.182l-.172 3.69L79 158h-2a2382 2382 0 0 0-1.437 7.438l-.409 2.083c-2.139 11.219-2.277 22.166-2.216 33.542q.008 2.468.013 4.935.017 6 .049 12.002l-1.923.388c-2.22.418-2.22.418-3.315 2.405l-1.075 2.394c-1.4 3.043-2.807 6.037-4.386 8.993-4.256 7.994-7.01 15.778-9.356 24.496C52 260 52 260 51 261a193 193 0 0 0-1.562 7.188c-.14.66-.278 1.32-.42 2.001-.801 3.998-1.164 7.738-1.018 11.811h-2v32h2l-.105 2.027C47.547 328.34 49.115 341.047 55 352q1.628 3.28 3.25 6.563 1.371 2.72 2.75 5.437h2l.781 2.168c1.293 3.004 2.847 5.467 4.719 8.144l1.844 2.676L72 379h2l.938 2.375c1.319 3.627 1.319 3.627 4.25 5.875C82 389 82 389 84.625 391.813c3.405 3.555 7.412 5.555 11.75 7.8a59 59 0 0 1 6.125 3.7c2.46 1.823 2.46 1.823 5.5 2.687l1.316 1.43c2.31 2.154 4.623 2.753 7.621 3.695l3.153 1.008A124 124 0 0 0 127 414v2l3.727 1.242C145 422 145 422 147.585 423.018c4.81 1.383 9.6 1.756 14.575 2.2l3.299.313c3.533.331 7.068.651 10.603.969l3.672.334q9.016.82 18.034 1.613c3.554.313 7.108.632 10.66.977 37.05 3.596 74.62 2.669 111.632-.86q2.952-.278 5.906-.546c15.59-1.457 30.504-3.774 45.523-8.274q2.658-.786 5.338-1.492l2.755-.75 2.496-.657c.634-.28 1.268-.558 1.922-.845l1-3 2.5-.312c4.093-.804 7.625-2.152 11.5-3.688v-2l2.59-.754c3.683-1.346 6.663-3.086 9.973-5.183l3.316-2.09L418 397l2.727-1.594c2.88-1.781 5.017-3.892 7.273-6.406v-2l3-1c1.722-1.92 1.722-1.92 3.375-4.25 2.036-2.722 4.007-5.25 6.5-7.562 2.103-2.166 2.797-3.235 3.125-6.188h2l2-6h2c2.201-3.804 2.201-3.804 3-8h2c10.665-30.183 12.439-65.753 1-96l-1.105-2.152c-1.05-2.169-1.355-4.094-1.707-6.473-.902-4.856-2.647-8.736-4.97-13.07C447 234 447 234 445.563 230.437c-2.419-5.321-5.192-10.849-10.13-14.158C433 214 433 214 432.388 210.97l.01-3.544-.04-3.938.01-2.068c.012-3.53-.058-7.058-.13-10.588l-.04-2.089c-.155-6.567-1.097-12.696-2.452-19.102-.777-3.794-1.212-7.541-1.621-11.391-1.392-10.78-5.834-19.95-10.777-29.52a65 65 0 0 1-3.036-7.23c-1.142-3.046-2.075-5.165-4.312-7.5h-2l-.746-2.2c-3.41-7.614-10.816-13.545-17.113-18.816C388 91 388 91 385.69 87.957c-3.038-3.338-5.827-4.65-10.003-6.02l-2.109-.737A427 427 0 0 0 367 79l-2.129-.716c-14.399-4.835-27.66-6.758-42.808-6.784l-2.49-.006C306.52 71.516 295.05 72.633 283 78l-2.242.94c-7.624 3.235-14.358 6.507-19.434 13.302-1.775 2.356-3.993 3.976-6.324 5.758l-1 2c-3.974-.52-5.358-2.258-7.812-5.312-3.482-4.098-6.46-6.233-11.188-8.688l-1.61-1.883c-3.52-3.117-7.471-4.216-11.89-5.68l-2.531-.88c-2.643-.9-5.3-1.738-7.969-2.557l-2.712-.867c-8.953-2.585-17.674-2.644-26.913-2.57l-2.415.008c-15.137.078-28.73 1.297-42.491 8.199"/><path fill="#90898F" d="m170.633 71.727 2.258-.038c29.687-.403 29.687-.403 42.182 4.554 2.114.83 4.25 1.56 6.404 2.284 11.462 3.97 11.462 3.97 15.523 8.473q1.911 1.443 3.875 2.813c3.543 2.58 6.165 5.378 8.8 8.867 1.367 1.673 1.367 1.673 4.325 1.32a104 104 0 0 0 4-5c8.055-8.479 16.391-13.384 27-18l1.902-.848c11.18-4.712 22.854-4.621 34.786-4.652l2.395-.014c14.958-.034 28.438 2.135 42.48 7.576q2.782 1.05 5.566 2.098l2.567.987c1.895.701 3.825 1.307 5.761 1.884 2.836 1.08 3.85 2.018 5.668 4.406 3.026 3.713 6.36 6.894 9.938 10.063 4.53 4.053 8.894 8.174 11.937 13.5v2l3 1c3.55 5.207 5.575 10.9 7.773 16.781a151 151 0 0 0 3.352 8.094l.969 2.172c.796 1.716 1.658 3.4 2.531 5.078 1.738 4.075 2.1 8.366 2.604 12.737.535 4.617 1.374 9.085 2.334 13.638 1.175 5.756 1.546 11.393 1.605 17.262l.029 2.088c.042 3.49.044 6.973-.015 10.463-.207 6.756-.207 6.756 2.311 12.772 1.766 1.465 3.58 2.674 5.507 3.915 3.707 4.886 6.327 10.285 8.285 16.078.763 2.051 1.73 3.877 2.777 5.797 1.961 3.789 2.664 7.398 3.38 11.578.567 2.59 1.42 4.753 2.495 7.172 11.272 26.706 8.738 64.983-1.203 91.594L455 354h-2l-.937 2.875C451 360 451 360 450 362h-2l-2 6h-2l-.723 2.184c-1.47 3.241-3.28 5.291-5.714 7.878-3.272 3.491-3.272 3.491-6.223 7.247L430 387h-2v2c-3.775 4.364-8.067 7.083-13 10l-2.527 1.578c-4.39 2.72-8.43 5.095-13.473 6.422v2q-2.654 1.008-5.312 2l-2.989 1.125C388 413 388 413 385 413l-1 3c-1.922.845-1.922.845-4.418 1.501-.909.248-1.818.496-2.755.75L374 419q-2.496.74-4.99 1.487c-15.504 4.42-30.92 6.426-46.947 7.888l-4.044.382c-41.502 3.889-82.98 3.317-124.467-.526-3.57-.323-7.141-.617-10.713-.913-3.622-.305-7.243-.629-10.864-.959q-2.54-.228-5.082-.443c-11.215-.96-21.293-3.123-31.893-6.916l-2.76-.987c-1.756-.647-3.5-1.324-5.24-2.013v-2l-1.621-.383c-2.848-.739-5.64-1.596-8.442-2.492l-3.16-.992c-2.726-1.112-3.839-2.016-5.777-4.133-1.73-.99-1.73-.99-3.625-1.812-4.04-1.935-7.655-4.284-11.344-6.817-2.1-1.459-2.1-1.459-4.719-2.871-2.705-1.755-4.706-3.83-6.882-6.195-1.513-1.558-1.513-1.558-4.43-2.305-3-4.333-3-4.333-3-7l-3-1c-2.043-2.652-2.043-2.652-4.187-5.937l-2.168-3.278C63 366 63 366 63 364h-2c-2.158-3.097-3.692-6.386-5.113-9.875a121 121 0 0 0-2.117-4.75C48.568 337.905 47.588 326.484 48 314h-2v-32h2l.148-1.8c.836-9.265 2.04-17.66 5.852-26.2q.716-2.68 1.375-5.375c1.208-4.654 2.942-8.46 5.441-12.555 1.25-2.074 1.25-2.074 2.141-4.465 1.18-2.947 2.63-5.641 4.168-8.417l1.633-2.958L70 218h3l-.048-2.911C72.437 180.595 72.437 180.595 76 164c.343-1.998.68-3.998 1-6h2l.043-2.64c.356-8.882 2.111-15.414 5.957-23.36q.971-2.156 1.934-4.316 1.03-2.28 2.066-4.559l.969-2.163c2.147-4.61 4.512-8.27 8.031-11.962h2l.813-1.766C104.83 99.675 112.05 93.777 119 89h2l1-3c11.496-6.632 24.179-10.024 37-13l1.738-.533c3.282-.678 6.556-.69 9.895-.74M124 112v2l-1.762.734c-12.703 7.183-18.738 27.477-22.52 40.668-4.396 16.223-5.208 32.54-5.984 49.258l-.124 2.597q-.106 2.328-.181 4.658c-.288 7.108-1.775 13.356-5.117 19.71l-1.605 3.125a980 980 0 0 1-3.445 6.5c-11.723 22.458-15.013 44.879-14.331 70.03.061 2.412.083 4.822.092 7.236.26 10.174 2.921 18.292 6.977 27.484l1.18 2.71c1.6 3.435 2.61 5.15 5.82 7.29l1.688 3.125c3.56 6.56 9.496 11.351 15.312 15.875l1.813 1.875c22.5 21.857 57.717 25.66 87.375 28.188l3.107.266c15.564 1.33 31.078 2.485 46.705 2.671l3.719.046c9.429.095 18.853.066 28.281-.046l3.44-.038c53.116-.093 53.116-.093 103.58-14.034 2.084-.977 4.19-1.773 6.355-2.553 3.65-1.23 3.65-1.23 6.625-3.375v-2l2.156-.29c3.314-.827 5.506-2.196 8.344-4.085 5.437-3.59 5.437-3.59 8.23-5.184 3.053-1.938 4.278-4.425 6.27-7.441 1.984-2.094 4.04-4.1 6.102-6.117 2.825-2.803 5.323-5.413 6.785-9.149 1.266-3.11 2.874-5.886 4.55-8.796C445.385 322.883 443.28 291.652 437 268h-2l-.25-3.812c-.613-5.746-2.607-10.856-4.75-16.188h-2l-1-7h-2l-.437-2.375c-.441-2.59-.441-2.59-1.563-4.625h-2l-.625-2.062c-1.563-3.34-3.548-5.602-6.035-8.29-2.967-3.65-2.563-7.978-2.7-12.445q-.09-2.406-.184-4.811l-.1-2.545c-.608-14.838-1.741-29.017-5.687-43.402a283 283 0 0 1-1.896-7.41c-2.266-8.99-5.156-16.943-9.773-25.035h-2l-.625-2.062c-1.804-3.854-4.276-7.016-7.375-9.938h-2c-.26-.594-.52-1.189-.79-1.8-1.288-2.341-2.558-3.666-4.585-5.388l-1.773-1.542c-1.962-1.346-3.528-1.845-5.852-2.27v-2q-3.747-1.445-7.5-2.875l-2.11-.816c-12.31-4.674-23.834-5.477-36.952-5.434l-3.577-.012C312.812 93.87 306.98 94.07 301 95v2l-1.871.043C292.25 97.43 287.684 99.181 282 103l-2.352 1.465c-7.829 5.355-10.683 12.58-14.086 21.16-1 6.009.007 11.6 1.418 17.469 1.237 5.473 1.676 10.943 2.082 16.531l.25 3.256c.814 11.028 1.3 22.068 1.688 33.119h-2a263 263 0 0 0-4 5c-2.405 1.203-3.95 1.1-6.625 1.063l-2.477-.028L254 202c-4.504-8.183-4.273-18.632-5-27.75-2.155-34.91-2.155-34.91-18-65.25-3.638-2.976-3.638-2.976-8-4v-2l-6-2v-2c-30.536-9.532-67.781-9.066-93 13"/><path fill="#8D888E" d="M325.66 288.703c8.53-.572 13.87 1.784 20.34 7.297 5.142 5.503 7.285 11.099 7.25 18.563l.016 3.378c-.59 6.786-4.996 10.106-9.954 14.372C341 334 341 334 339 334v2c-6.551 2.016-15.52 2.31-22-.062-3.72-2.403-6.654-5.157-9-8.938v-3h-2c-3.061-10.714-2.332-18.157 3-28h2v-2c4.97-3.905 8.562-4.616 14.66-5.297"/><path fill="#8F8A8F" d="M191.25 288.875 194 290l2.406.828c2.898 1.31 4.616 2.793 6.844 5.047l2.078 2.055c3.205 3.969 2.833 7.968 2.86 12.945l.042 3.617c-.318 4.852-.918 8.334-4.605 11.633L201 328l-2 2.063c-5.478 5.307-11.032 6.319-18.406 6.21-6.06-.638-10.08-3.396-13.969-7.96l-1.398-1.825c-1.177-1.632-1.177-1.632-3.227-2.488v-3h-2c-1.786-6.136-1.86-12.625.313-18.625C162 300 162 300 165 299l.84-1.828c4.806-8.997 16.552-10.682 25.41-8.297"/><path fill="#B9B3B9" d="M266 124c.8 2.4 1.058 3.765.445 6.254-.548 3.379.052 5.673.868 8.996 4.097 18.527 4.037 37.868 3.687 56.75h-2l-.75 1.813c-1.552 2.716-2.41 3.804-5.25 5.187-3.235.316-6.024.352-9-1-5.464-6.453-5.067-14.862-5.625-22.937-.215-2.843-.44-5.686-.664-8.528l-.163-2.127c-.501-6.336-1.269-12.622-2.098-18.922-.58-4.488-1.028-8.98-1.45-13.486l19-2 2-7z"/><path fill="#C1B7BA" d="M348 300c3.65 3.153 4.868 6.414 5.266 11.191l-.016 3.372.016 3.378c-.59 6.786-4.996 10.106-9.954 14.372C341 334 341 334 339 334v2l-9 1c4.393-3.891 4.393-3.891 7.438-4.437 4.43-.973 7.22-3.742 9.832-7.286 3.233-5.564 3.404-10.97 2.73-17.277-.885-3.415-.885-3.415-2-6z"/><path fill="#CFCFCE" d="M191.113 286.91c1.95 1.09 1.95 1.09 4.887 3.09l-2 1-2.562-.937c-5.79-1.79-9.972-2.17-15.614.363-6.762 3.483-6.762 3.483-10.824 9.574h-2c1.66-4.979 3.964-7.781 8.48-10.484 6.521-3.05 12.646-5.615 19.633-2.606"/><path fill="#BCB2B6" d="M49 272h1c-.673 14.03-1.776 28.008-3 42h-1v-32h2z"/><path fill="#C8C0C4" d="M111 383c5.053 1.574 9.828 3.32 14.625 5.563 4.092 1.91 7.993 3.366 12.375 4.437v2h9v3c-6.656-.552-12.39-2.854-18.562-5.312l-3.077-1.186c-5.2-2.048-9.927-4.069-14.361-7.502z"/><path fill="#D6CBD1" d="m79 386 2.938 2.625C90.006 395.527 99.453 401.369 109 406l-2 1c-2.164-.777-2.164-.777-4.625-1.937l-2.477-1.153L98 403v-2l-7-1-1-3-2.187-1.312C84.22 393.532 81.829 391.092 79 388z"/><path fill="#DFD4D6" d="M432 183h1v27h2l2 8c-2.47-1.552-2.47-1.552-5-4-.568-3.3-.568-3.3-.488-7.172l.021-2.068c.028-2.171.09-4.34.154-6.51q.038-2.212.069-4.426c.055-3.609.141-7.216.244-10.824"/><path fill="#D5D3D5" d="M208 306h1c.055 2.041.093 4.083.125 6.125l.07 3.445c-.2 3.52-.82 6.192-2.195 9.43l-2 1-1.312 2.5C202 331 202 331 199.313 331.813L197 332l1-2h2l.75-1.875c1.25-2.125 1.25-2.125 3.276-3 2.14-.93 2.14-.93 2.612-3.004l.19-2.254.234-2.441.188-2.551.234-2.574c.189-2.099.355-4.2.516-6.301"/><path fill="#DED2DA" d="M373 420q-2.842.974-5.687 1.938l-3.2 1.09c-2.71.846-5.325 1.459-8.113 1.972l-2.016.559c-2.297.51-4.383.538-6.734.503l-2.422-.027L343 426v-1l3.148-.55c7.109-1.274 14.012-2.563 20.836-4.997 2.34-.526 3.764-.204 6.016.547"/><path fill="#E6E4E3" d="M132 106c0 3.612-.618 4.371-3 7l-2.312 1.375c-3.484 2.106-5.878 4.685-8.688 7.625l-2-1a418 418 0 0 1 2.875-3.5l1.617-1.969L122 114h2l1-3c1.629-1.387 1.629-1.387 3.563-2.687l1.94-1.325z"/><path fill="#AEA5A9" d="M423 144c3.31 4.175 4.152 7.2 4.188 12.5l.042 2.906C427 162 427 162 425 165a1690 1690 0 0 1-2-21"/><path fill="#D8C8CE" d="M171 71h35l1 3-3.094-.465c-6.44-.805-12.924-.897-19.406-1.097l-3.937-.131Q175.782 72.148 171 72z"/><path fill="#AAA9AC" d="M319 290c-1.503 3.668-3.637 5.69-6.625 8.25l-2.477 2.14L308 302c0-3 0-3 1-6h2v-2c5.412-4 5.412-4 8-4"/><path fill="#DBCFD4" d="M109 408c6.107 1.765 12.074 3.696 18 6v2l2 1c-4.361-.674-8.225-2.196-12.25-3.937l-1.93-.803c-4.697-2.014-4.697-2.014-5.82-4.26"/><path fill="#D9CCD4" d="m453 250 1 2h2a556 556 0 0 1 2 5.625l1.125 3.164c.88 3.229 1.035 5.883.875 9.211-1.685-3.276-3.177-6.613-4.625-10l-1.352-3.125C453 254 453 254 453 250"/><path fill="#9A8F97" d="m359 420 2 2c-10.374 3.444-10.374 3.444-16 3l1.75-.812c2.295-1.103 2.295-1.103 4.125-2.813 2.852-1.846 4.793-1.737 8.125-1.375"/><path fill="#DCD2D7" d="m435 380 1 2a159 159 0 0 1-5 6h-2l-.812 1.813c-1.173 2.16-2.382 3.545-4.188 5.187l-2-1a105 105 0 0 1 4-5h2v-2a141 141 0 0 1 5-5z"/><path fill="#A2989E" d="m258 95 2 4c-2.25 2.563-2.25 2.563-5 5-2.312-.187-2.312-.187-4-1v-2l3-1a95 95 0 0 0 4-5"/><path fill="#AB9FA3" d="m276 81 2 1-1.875.75c-2.262 1.071-2.262 1.071-3.125 3.25-1.245 2.49-2.467 2.987-5 4l-3-2c8.003-5.89 8.003-5.89 11-7"/><path fill="#EBDDE4" d="M311 429v1h-11l-1 3h-4v-2h-6v-1c7.358-.912 14.59-1.115 22-1"/><path fill="#BDBDBC" d="m177 290-2.117 1.172-2.758 1.578c-.905.51-1.81 1.02-2.742 1.547-2.463 1.76-3.328 2.913-4.383 5.703h-2c1.596-4.79 3.783-7.545 8-10.312 2.422-.833 3.588-.386 6 .312"/><path fill="#A69BA0" d="m116 91 2 1-2 3v2h-4c-2.269 2.419-2.269 2.419-4 5l-3-1z"/><path fill="#D9D0D0" d="M373 392h7c-2.67 1.78-5.05 2.972-8 4.188l-2.625 1.105C367 398 367 398 364 397l-1-2 1.934-.148 2.503-.227c.824-.07 1.648-.14 2.497-.21L372 394z"/><path fill="#EADEE5" d="M75 165h1l-2 18h-1c-.054-2.25-.093-4.5-.125-6.75l-.07-3.797c.18-3.181.505-4.818 2.195-7.453"/><path fill="#E0D9DD" d="m135 392 3 1v2h9v3c-4.973-.497-8.638-1.553-13-4z"/><path fill="#AFA5A9" d="M348 300c2.248 2.052 3.002 3.007 4 6 .069 2.061.085 4.125.063 6.188l-.028 3.292L352 318h-1l-.148-1.977c-.426-4.976-1.086-9.313-2.852-14.023z"/><path fill="#DED4D6" d="M444 368h2v6l-6 2z"/><path fill="#DDD3D6" d="M163 324c2.932 2.853 5.643 5.65 8 9l-3 1-1-4h-2z"/><path fill="#E0D6D9" d="M404 106c1.813.125 1.813.125 4 1 1.813 2.938 1.813 2.938 3 6l-1 2c-2.275-2.167-4.236-4.396-6-7z"/><path fill="#CAC3C4" d="M391 387c-2.121 2.333-4.016 3.915-7 5-2.25-.375-2.25-.375-4-1h3v-2c3.228-2.152 4.284-2.2 8-2"/><path fill="#A99EA4" d="M422 362c1 2 1 2 .438 4-2.011 2.797-4.182 3.15-7.438 4l2.938-3.437 1.652-1.934A50 50 0 0 1 422 362"/><path fill="#B0ACB0" d="M73 338c2.228 2.228 2.692 3.658 3.625 6.625l.79 2.477L78 349l-3 1c-1.138-4.266-2-7.565-2-12"/><path fill="#9E9A9D" d="M77 250h2c-1.75 7.625-1.75 7.625-4 11-.25-7.625-.25-7.625 2-11"/><path fill="#E3D5DD" d="m446 230 5 5-2 4c-2.294-3.44-3-4.723-3-9"/><path fill="#E7DAE1" d="M193 71h13l1 3-14-2z"/><path fill="#D9CBD2" d="M415 399c-1 3-1 3-4 5-2.187-.375-2.187-.375-4-1 5.75-4 5.75-4 8-4"/><path fill="#D4C8CC" d="M53 348c1.743 2.297 3.4 4.599 5 7-.375 2.188-.375 2.188-1 4-4-6.5-4-6.5-4-11"/><path fill="#F1E8EA" d="M338 69v2l2 1h-8l-1-2c2.49-.687 4.379-1 7-1"/></svg>